<?xml version="1.0" encoding="UTF-8" standalone="no"?>
<!DOCTYPE svg PUBLIC "-//W3C//DTD SVG 1.1//EN"
 "http://www.w3.org/Graphics/SVG/1.1/DTD/svg11.dtd">
<!-- Generated by graphviz version 2.43.0 (0)
 -->
<!-- Title: A Pages: 1 -->
<svg width="688pt" height="370pt"
 viewBox="0.00 0.00 688.00 369.50" xmlns="http://www.w3.org/2000/svg" xmlns:xlink="http://www.w3.org/1999/xlink">
<g id="graph0" class="graph" transform="scale(1 1) rotate(0) translate(4 365.5)">
<title>A</title>
<polygon fill="white" stroke="transparent" points="-4,4 -4,-365.5 684,-365.5 684,4 -4,4"/>
<!-- Intership -->
<g id="node1" class="node">
<title>Intership</title>
<path fill="#fdfcdc" stroke="black" stroke-width="0" d="M124,-141C124,-141 12,-141 12,-141 6,-141 0,-135 0,-129 0,-129 0,-45 0,-45 0,-39 6,-33 12,-33 12,-33 124,-33 124,-33 130,-33 136,-39 136,-45 136,-45 136,-129 136,-129 136,-135 130,-141 124,-141"/>
<text text-anchor="start" x="42" y="-105.8" font-family="Helvetica,Arial,sans-serif" font-size="14.00" fill="#003049">Intership</text>
<path fill="#fcbf49" stroke="transparent" d="M29.67,-47C29.67,-47 106.33,-47 106.33,-47 112.17,-47 118,-52.83 118,-58.67 118,-58.67 118,-70.33 118,-70.33 118,-76.17 112.17,-82 106.33,-82 106.33,-82 29.67,-82 29.67,-82 23.83,-82 18,-76.17 18,-70.33 18,-70.33 18,-58.67 18,-58.67 18,-52.83 23.83,-47 29.67,-47"/>
<text text-anchor="start" x="41.5" y="-60.8" font-family="Helvetica,Arial,sans-serif" font-size="14.00" fill="#003049">Phisaver</text>
</g>
<!-- Flutter -->
<g id="node6" class="node">
<title>Flutter</title>
<path fill="#fcbf49" stroke="black" stroke-width="0" d="M268,-82C268,-82 184,-82 184,-82 178,-82 172,-76 172,-70 172,-70 172,-58 172,-58 172,-52 178,-46 184,-46 184,-46 268,-46 268,-46 274,-46 280,-52 280,-58 280,-58 280,-70 280,-70 280,-76 274,-82 268,-82"/>
<text text-anchor="middle" x="226" y="-60.3" font-family="Helvetica,Arial,sans-serif" font-size="14.00" fill="#003049">Flutter</text>
</g>
<!-- Intership&#45;&gt;Flutter -->
<g id="edge3" class="edge">
<title>Intership:e&#45;&gt;Flutter:w</title>
<path fill="none" stroke="#003049" d="M119,-64C138.69,-64 146.04,-64 161.68,-64"/>
<polygon fill="#003049" stroke="#003049" points="172,-64 162,-68.5 167,-64 162,-64 162,-64 162,-64 167,-64 162,-59.5 172,-64 172,-64"/>
</g>
<!-- Forecasting -->
<g id="node7" class="node">
<title>Forecasting</title>
<path fill="#fcbf49" stroke="black" stroke-width="0" d="M426,-36C426,-36 342,-36 342,-36 336,-36 330,-30 330,-24 330,-24 330,-12 330,-12 330,-6 336,0 342,0 342,0 426,0 426,0 432,0 438,-6 438,-12 438,-12 438,-24 438,-24 438,-30 432,-36 426,-36"/>
<text text-anchor="middle" x="384" y="-14.3" font-family="Helvetica,Arial,sans-serif" font-size="14.00" fill="#003049">Forecasting</text>
</g>
<!-- Intership&#45;&gt;Forecasting -->
<g id="edge4" class="edge">
<title>Intership:e&#45;&gt;Forecasting:w</title>
<path fill="none" stroke="#003049" d="M119,-64C145.44,-64 146.71,-44.71 172,-37 235.82,-17.55 256.61,-17.91 318.67,-17.99"/>
<polygon fill="#003049" stroke="#003049" points="329,-18 319,-22.49 324,-18 319,-17.99 319,-17.99 319,-17.99 324,-18 319,-13.49 329,-18 329,-18"/>
</g>
<!-- ML -->
<g id="node8" class="node">
<title>ML</title>
<path fill="#fcbf49" stroke="black" stroke-width="0" d="M268,-190C268,-190 184,-190 184,-190 178,-190 172,-184 172,-178 172,-178 172,-166 172,-166 172,-160 178,-154 184,-154 184,-154 268,-154 268,-154 274,-154 280,-160 280,-166 280,-166 280,-178 280,-178 280,-184 274,-190 268,-190"/>
<text text-anchor="middle" x="226" y="-168.3" font-family="Helvetica,Arial,sans-serif" font-size="14.00" fill="#003049">ML</text>
</g>
<!-- Intership&#45;&gt;ML -->
<g id="edge5" class="edge">
<title>Intership:e&#45;&gt;ML:w</title>
<path fill="none" stroke="#003049" d="M119,-64C168.5,-64 125.95,-156.56 161.78,-170.3"/>
<polygon fill="#003049" stroke="#003049" points="172,-172 161.4,-174.8 167.07,-171.18 162.14,-170.36 162.14,-170.36 162.14,-170.36 167.07,-171.18 162.87,-165.92 172,-172 172,-172"/>
</g>
<!-- Business -->
<g id="node2" class="node">
<title>Business</title>
<path fill="#fdfcdc" stroke="black" stroke-width="0" d="M440,-343.5C440,-343.5 328,-343.5 328,-343.5 322,-343.5 316,-337.5 316,-331.5 316,-331.5 316,-202.5 316,-202.5 316,-196.5 322,-190.5 328,-190.5 328,-190.5 440,-190.5 440,-190.5 446,-190.5 452,-196.5 452,-202.5 452,-202.5 452,-331.5 452,-331.5 452,-337.5 446,-343.5 440,-343.5"/>
<text text-anchor="start" x="356.5" y="-307.8" font-family="Helvetica,Arial,sans-serif" font-size="14.00" fill="#003049">Business</text>
<path fill="#fcbf49" stroke="transparent" d="M345.67,-249C345.67,-249 422.33,-249 422.33,-249 428.17,-249 434,-254.83 434,-260.67 434,-260.67 434,-272.33 434,-272.33 434,-278.17 428.17,-284 422.33,-284 422.33,-284 345.67,-284 345.67,-284 339.83,-284 334,-278.17 334,-272.33 334,-272.33 334,-260.67 334,-260.67 334,-254.83 339.83,-249 345.67,-249"/>
<text text-anchor="start" x="365.5" y="-262.8" font-family="Helvetica,Arial,sans-serif" font-size="14.00" fill="#003049">Drone</text>
<path fill="#fcbf49" stroke="transparent" d="M345.67,-204C345.67,-204 422.33,-204 422.33,-204 428.17,-204 434,-209.83 434,-215.67 434,-215.67 434,-227.33 434,-227.33 434,-233.17 428.17,-239 422.33,-239 422.33,-239 345.67,-239 345.67,-239 339.83,-239 334,-233.17 334,-227.33 334,-227.33 334,-215.67 334,-215.67 334,-209.83 339.83,-204 345.67,-204"/>
<text text-anchor="start" x="367" y="-217.8" font-family="Helvetica,Arial,sans-serif" font-size="14.00" fill="#003049">Laser</text>
</g>
<!-- Business&#45;&gt;Business -->
<g id="edge13" class="edge">
<title>Business:e&#45;&gt;Business:w</title>
<path fill="none" stroke="#003049" d="M434,-266C473.5,-297.5 473.5,-361.5 384,-361.5 300.79,-361.5 294.94,-306.18 326.27,-273.09"/>
<polygon fill="#003049" stroke="#003049" points="334,-266 329.68,-276.08 330.32,-269.38 326.63,-272.76 326.63,-272.76 326.63,-272.76 330.32,-269.38 323.59,-269.45 334,-266 334,-266"/>
</g>
<!-- Project -->
<g id="node3" class="node">
<title>Project</title>
<path fill="#fdfcdc" stroke="black" stroke-width="0" d="M668,-231C668,-231 500,-231 500,-231 494,-231 488,-225 488,-219 488,-219 488,-45 488,-45 488,-39 494,-33 500,-33 500,-33 668,-33 668,-33 674,-33 680,-39 680,-45 680,-45 680,-219 680,-219 680,-225 674,-231 668,-231"/>
<text text-anchor="start" x="562.5" y="-195.8" font-family="Helvetica,Arial,sans-serif" font-size="14.00" fill="#003049">Project</text>
<path fill="#fcbf49" stroke="transparent" d="M517.67,-137C517.67,-137 650.33,-137 650.33,-137 656.17,-137 662,-142.83 662,-148.67 662,-148.67 662,-160.33 662,-160.33 662,-166.17 656.17,-172 650.33,-172 650.33,-172 517.67,-172 517.67,-172 511.83,-172 506,-166.17 506,-160.33 506,-160.33 506,-148.67 506,-148.67 506,-142.83 511.83,-137 517.67,-137"/>
<text text-anchor="start" x="541.5" y="-150.8" font-family="Helvetica,Arial,sans-serif" font-size="14.00" fill="#003049">Information AI</text>
<path fill="#fcbf49" stroke="transparent" d="M517.67,-92C517.67,-92 650.33,-92 650.33,-92 656.17,-92 662,-97.83 662,-103.67 662,-103.67 662,-115.33 662,-115.33 662,-121.17 656.17,-127 650.33,-127 650.33,-127 517.67,-127 517.67,-127 511.83,-127 506,-121.17 506,-115.33 506,-115.33 506,-103.67 506,-103.67 506,-97.83 511.83,-92 517.67,-92"/>
<text text-anchor="start" x="516" y="-105.8" font-family="Helvetica,Arial,sans-serif" font-size="14.00" fill="#003049">3D vision&#45; modeling AI</text>
<path fill="#fcbf49" stroke="transparent" d="M517.67,-47C517.67,-47 650.33,-47 650.33,-47 656.17,-47 662,-52.83 662,-58.67 662,-58.67 662,-70.33 662,-70.33 662,-76.17 656.17,-82 650.33,-82 650.33,-82 517.67,-82 517.67,-82 511.83,-82 506,-76.17 506,-70.33 506,-70.33 506,-58.67 506,-58.67 506,-52.83 511.83,-47 517.67,-47"/>
<text text-anchor="start" x="546" y="-60.8" font-family="Helvetica,Arial,sans-serif" font-size="14.00" fill="#003049">Trading Algo</text>
</g>
<!-- Business&#45;&gt;Project -->
<g id="edge10" class="edge">
<title>Business:e&#45;&gt;Project:w</title>
<path fill="none" stroke="#003049" d="M435,-221C477.08,-221 448.05,-146.64 477.91,-133.86"/>
<polygon fill="#003049" stroke="#003049" points="488,-132 478.98,-138.24 483.08,-132.91 478.17,-133.81 478.17,-133.81 478.17,-133.81 483.08,-132.91 477.35,-129.39 488,-132 488,-132"/>
</g>
<!-- Business&#45;&gt;Project -->
<g id="edge12" class="edge">
<title>Business:e&#45;&gt;Project:w</title>
<path fill="none" stroke="#003049" d="M435,-266C495.17,-266 432.54,-147.74 477.84,-133.41"/>
<polygon fill="#003049" stroke="#003049" points="488,-132 478.72,-137.84 483.05,-132.69 478.1,-133.38 478.1,-133.38 478.1,-133.38 483.05,-132.69 477.48,-128.92 488,-132 488,-132"/>
</g>
<!-- Manufacturer -->
<g id="node9" class="node">
<title>Manufacturer</title>
<path fill="#fcbf49" stroke="black" stroke-width="0" d="M626,-285C626,-285 542,-285 542,-285 536,-285 530,-279 530,-273 530,-273 530,-261 530,-261 530,-255 536,-249 542,-249 542,-249 626,-249 626,-249 632,-249 638,-255 638,-261 638,-261 638,-273 638,-273 638,-279 632,-285 626,-285"/>
<text text-anchor="middle" x="584" y="-263.3" font-family="Helvetica,Arial,sans-serif" font-size="14.00" fill="#003049">Manufacturer</text>
</g>
<!-- Business&#45;&gt;Manufacturer -->
<g id="edge11" class="edge">
<title>Business:e&#45;&gt;Manufacturer:w</title>
<path fill="none" stroke="#003049" d="M435,-221C477.88,-221 482.06,-260.09 518.89,-266.2"/>
<polygon fill="#003049" stroke="#003049" points="529,-267 518.68,-270.7 524.02,-266.61 519.03,-266.21 519.03,-266.21 519.03,-266.21 524.02,-266.61 519.39,-261.73 529,-267 529,-267"/>
</g>
<!-- Business&#45;&gt;Manufacturer -->
<g id="edge14" class="edge">
<title>Business:e&#45;&gt;Manufacturer:w</title>
<path fill="none" stroke="#003049" d="M435,-266C473.19,-266 485.19,-266.84 518.88,-266.98"/>
<polygon fill="#003049" stroke="#003049" points="529,-267 518.99,-271.48 524,-266.99 519,-266.98 519,-266.98 519,-266.98 524,-266.99 519.01,-262.48 529,-267 529,-267"/>
</g>
<!-- FASTAI -->
<g id="node4" class="node">
<title>FASTAI</title>
<path fill="#fcbf49" stroke="black" stroke-width="0" d="M268,-136C268,-136 184,-136 184,-136 178,-136 172,-130 172,-124 172,-124 172,-112 172,-112 172,-106 178,-100 184,-100 184,-100 268,-100 268,-100 274,-100 280,-106 280,-112 280,-112 280,-124 280,-124 280,-130 274,-136 268,-136"/>
<text text-anchor="middle" x="226" y="-114.3" font-family="Helvetica,Arial,sans-serif" font-size="14.00" fill="#003049">FASTAI</text>
</g>
<!-- Thesis -->
<g id="node5" class="node">
<title>Thesis</title>
<path fill="#fcbf49" stroke="black" stroke-width="0" d="M426,-128C426,-128 342,-128 342,-128 336,-128 330,-122 330,-116 330,-116 330,-104 330,-104 330,-98 336,-92 342,-92 342,-92 426,-92 426,-92 432,-92 438,-98 438,-104 438,-104 438,-116 438,-116 438,-122 432,-128 426,-128"/>
<text text-anchor="middle" x="384" y="-106.3" font-family="Helvetica,Arial,sans-serif" font-size="14.00" fill="#003049">Thesis</text>
</g>
<!-- FASTAI&#45;&gt;Thesis -->
<g id="edge1" class="edge">
<title>FASTAI:e&#45;&gt;Thesis:w</title>
<path fill="none" stroke="#003049" d="M280,-118C298.27,-118 304.75,-112.51 318.97,-110.63"/>
<polygon fill="#003049" stroke="#003049" points="329,-110 319.3,-115.12 324.01,-110.31 319.02,-110.62 319.02,-110.62 319.02,-110.62 324.01,-110.31 318.74,-106.13 329,-110 329,-110"/>
</g>
<!-- Thesis&#45;&gt;Project -->
<g id="edge2" class="edge">
<title>Thesis:e&#45;&gt;Project:w</title>
<path fill="none" stroke="#003049" d="M439,-110C464.67,-110 473.49,-109.23 494.94,-109.04"/>
<polygon fill="#003049" stroke="#003049" points="505,-109 495.02,-113.54 500,-109.02 495,-109.04 495,-109.04 495,-109.04 500,-109.02 494.98,-104.54 505,-109 505,-109"/>
</g>
<!-- Flutter&#45;&gt;Project -->
<g id="edge7" class="edge">
<title>Flutter:e&#45;&gt;Project:w</title>
<path fill="none" stroke="#003049" d="M280,-64C356.91,-64 378.15,-61.52 452,-83 473.45,-89.24 477.78,-103.71 494.79,-107.86"/>
<polygon fill="#003049" stroke="#003049" points="505,-109 494.56,-112.37 500.03,-108.45 495.06,-107.89 495.06,-107.89 495.06,-107.89 500.03,-108.45 495.56,-103.42 505,-109 505,-109"/>
</g>
<!-- Flutter&#45;&gt;Thesis -->
<g id="edge8" class="edge">
<title>Flutter:e&#45;&gt;Thesis:w</title>
<path fill="none" stroke="#003049" d="M280,-64C305.9,-64 301.27,-98.59 319.06,-107.78"/>
<polygon fill="#003049" stroke="#003049" points="329,-110 318.26,-112.21 324.12,-108.91 319.24,-107.82 319.24,-107.82 319.24,-107.82 324.12,-108.91 320.22,-103.43 329,-110 329,-110"/>
</g>
<!-- Forecasting&#45;&gt;Project -->
<g id="edge6" class="edge">
<title>Forecasting:e&#45;&gt;Project:w</title>
<path fill="none" stroke="#003049" d="M439,-18C470.98,-18 469.95,-54.81 494.97,-62.57"/>
<polygon fill="#003049" stroke="#003049" points="505,-64 494.47,-67.05 500.05,-63.3 495.1,-62.59 495.1,-62.59 495.1,-62.59 500.05,-63.3 495.73,-58.14 505,-64 505,-64"/>
</g>
<!-- ML&#45;&gt;Project -->
<g id="edge9" class="edge">
<title>ML:e&#45;&gt;Project:w</title>
<path fill="none" stroke="#003049" d="M280,-172C301.33,-172 435.5,-139.15 477.98,-132.99"/>
<polygon fill="#003049" stroke="#003049" points="488,-132 478.49,-137.46 483.02,-132.49 478.05,-132.98 478.05,-132.98 478.05,-132.98 483.02,-132.49 477.61,-128.5 488,-132 488,-132"/>
</g>
</g>
</svg>
